<svg height="512" viewBox="0 0 128 128" width="512" xmlns="http://www.w3.org/2000/svg"><g><path d="m28.25 1.747h71.5v28.25h-71.5z" fill="#00ddc1"/><g fill="#ececf1"><path d="m43.08 7.81a1.749 1.749 0 0 0 -1.75 1.75v4.562h-2.984v-4.562a1.75 1.75 0 0 0 -3.5 0v12.625a1.75 1.75 0 0 0 3.5 0v-4.563h2.984v4.563a1.75 1.75 0 1 0 3.5 0v-12.625a1.749 1.749 0 0 0 -1.75-1.75z"/><path d="m55.161 7.81h-6.484a1.749 1.749 0 0 0 -1.75 1.75v12.625a1.75 1.75 0 0 0 1.75 1.75h6.484a1.75 1.75 0 0 0 1.75-1.75v-12.625a1.749 1.749 0 0 0 -1.75-1.75zm-1.75 12.625h-2.984v-9.125h2.984z"/><path d="m67.242 7.81h-6.484a1.75 1.75 0 1 0 0 3.5h1.492v10.875a1.75 1.75 0 1 0 3.5 0v-10.875h1.492a1.75 1.75 0 0 0 0-3.5z"/><path d="m79.323 11.31a1.75 1.75 0 0 0 0-3.5h-6.484a1.749 1.749 0 0 0 -1.75 1.75v12.625a1.75 1.75 0 0 0 1.75 1.75h6.484a1.75 1.75 0 0 0 0-3.5h-4.734v-2.813h4.734a1.75 1.75 0 0 0 0-3.5h-4.734v-2.812z"/><path d="m91.4 20.435h-4.73v-10.875a1.75 1.75 0 0 0 -3.5 0v12.625a1.75 1.75 0 0 0 1.75 1.75h6.48a1.75 1.75 0 0 0 0-3.5z"/></g><path d="m17.875 29.997h92.25v96.25h-92.25z" fill="#e1e4fb"/><path d="m47.812 102.875h32.375v23.375h-32.375z" fill="#0d70b2"/><path d="m62.25 102.875h3.5v23.375h-3.5z" fill="#0059aa"/><g fill="#c5c9f7"><g><path d="m27.875 39.997h18.375v12.509h-18.375z"/><path d="m54.812 39.997h18.375v12.509h-18.375z"/><path d="m81.75 39.997h18.375v12.509h-18.375z"/></g><g><path d="m27.875 60.177h18.375v12.509h-18.375z"/><path d="m54.812 60.177h18.375v12.509h-18.375z"/><path d="m81.75 60.177h18.375v12.509h-18.375z"/></g><g><path d="m27.875 80.358h18.375v12.509h-18.375z"/><path d="m54.812 80.358h18.375v12.509h-18.375z"/><path d="m81.75 80.358h18.375v12.509h-18.375z"/></g></g></g></svg>